HIERARCHY
ROOT bottle1_body
{
	OFFSET 0.000000 0.000000 0.000000
	CHANNELS 6 Xposition Yposition Zposition Yrotation Xrotation Zrotation
	End Site
	{
		OFFSET 0.000000 0.000000 0.000000
	}
}
MOTION
Frames: 66
Frame Time: 0.008333334
1.448941 6.479022 4.875645 -142.434400 23.407850 -9.054688 
1.443439 6.476735 4.876845 -142.719000 23.632160 -9.227844 
1.437937 6.474449 4.878045 -143.004800 23.855690 -9.402557 
1.432436 6.472162 4.879245 -143.291900 24.078410 -9.578766 
1.426934 6.469875 4.880445 -143.580100 24.300340 -9.756500 
1.421432 6.467589 4.881645 -143.869700 24.521430 -9.935791 
1.415930 6.465302 4.882845 -144.160500 24.741690 -10.116610 
1.409854 6.464465 4.890781 -144.696800 24.678600 -10.572050 
1.402655 6.463727 4.897871 -145.337200 24.841860 -10.980410 
1.395755 6.463180 4.903243 -145.838000 24.979540 -11.329770 
1.387988 6.461856 4.908130 -146.479800 25.098290 -11.676090 
1.380689 6.460771 4.910258 -147.178700 25.436640 -11.911870 
1.373289 6.459439 4.911062 -147.930000 25.616340 -12.158940 
1.366403 6.457883 4.910057 -148.757600 25.852030 -12.303250 
1.359779 6.456025 4.907636 -149.687400 26.213970 -12.462830 
1.353693 6.453841 4.902652 -150.467500 26.637570 -12.534000 
1.348227 6.451698 4.895854 -151.328000 27.074570 -12.517670 
1.342505 6.450011 4.888503 -152.299700 27.590640 -12.406280 
1.337112 6.449576 4.881072 -153.368900 28.026300 -12.315860 
1.331090 6.449782 4.874629 -154.699900 28.306860 -12.333680 
1.325151 6.451606 4.869660 -156.044100 28.703560 -12.458680 
1.319514 6.454593 4.864267 -157.448700 28.885340 -12.482700 
1.313475 6.458090 4.858313 -158.973500 29.093070 -12.581880 
1.308658 6.461892 4.850252 -160.230700 29.500970 -12.451260 
1.305590 6.465919 4.841347 -161.403000 29.751240 -12.208920 
1.304185 6.470102 4.831447 -162.504800 30.020640 -11.584350 
1.305510 6.474274 4.823080 -163.720000 30.408620 -10.984890 
1.307659 6.479013 4.816935 -165.071000 30.545030 -10.411870 
1.310521 6.483929 4.813742 -166.545300 30.639910 -9.994568 
1.313411 6.488470 4.812039 -168.142800 30.687070 -9.583374 
1.317004 6.492925 4.812006 -169.620400 30.779640 -9.189270 
1.320739 6.497742 4.810945 -171.105500 30.921940 -8.775909 
1.324442 6.501967 4.810692 -172.439700 31.054600 -8.289032 
1.328828 6.505420 4.811289 -173.805800 31.192200 -8.108002 
1.333421 6.508940 4.811240 -175.051500 31.481120 -7.779846 
1.338225 6.510890 4.811532 -176.261600 31.561740 -7.631256 
1.343483 6.512604 4.811157 -177.210200 31.910670 -7.338654 
1.348345 6.513332 4.812475 -178.077300 32.239820 -7.302612 
1.351658 6.513733 4.813578 -178.862000 32.352250 -7.239441 
1.353748 6.513608 4.817194 -179.478400 32.343470 -7.420288 
1.354232 6.513572 4.821861 179.931900 32.357580 -7.690491 
1.353193 6.513165 4.826295 179.445400 32.261320 -8.064331 
1.351379 6.512554 4.830563 179.025100 32.153210 -8.616516 
1.348219 6.512217 4.833389 178.562400 32.108840 -9.039124 
1.345019 6.510865 4.835085 178.230000 32.016950 -9.517914 
1.341323 6.509003 4.834620 177.805700 32.067910 -10.108520 
1.338002 6.506739 4.831998 177.377100 32.253900 -10.694210 
1.335427 6.504245 4.825583 177.000400 32.696820 -11.118500 
1.333649 6.500906 4.816458 176.295000 33.168830 -11.374850 
1.333125 6.497608 4.805491 175.663000 33.627040 -11.519200 
1.331458 6.494180 4.793827 174.863200 34.298980 -11.746000 
1.329262 6.490094 4.782723 174.134200 34.682290 -12.100490 
1.326686 6.485770 4.772857 173.450300 34.972340 -12.496640 
1.323590 6.481771 4.762363 172.894900 35.291230 -12.875370 
1.319764 6.478569 4.751733 172.333900 35.422380 -13.217680 
1.315928 6.476294 4.738836 171.806000 35.654860 -13.656800 
1.310236 6.474357 4.725347 171.043300 35.791430 -14.142760 
1.304368 6.472815 4.709979 170.517000 35.976460 -14.770360 
1.298443 6.470315 4.693744 170.023300 36.091090 -15.346370 
1.293925 6.467200 4.676247 169.425400 36.331590 -16.018520 
1.290837 6.463969 4.658785 168.790300 36.446900 -16.633640 
1.288956 6.461332 4.639992 167.710500 36.546980 -17.485990 
1.288756 6.458991 4.622106 166.220100 36.334530 -18.431730 
1.289534 6.457665 4.604120 164.143300 35.938310 -19.606140 
1.292480 6.456205 4.587285 161.455100 35.270730 -20.993100 
1.294114 6.455382 4.573135 158.075500 34.115950 -22.550660 
